<mxfile host="app.diagrams.net" agent="Mozilla/5.0 (Windows NT 10.0; Win64; x64) AppleWebKit/537.36 (KHTML, like Gecko) Chrome/136.0.0.0 Safari/537.36" version="27.0.5">
  <diagram name="Página-1" id="BfDUsQcB-GJxw6BIMGFm">
    <mxGraphModel grid="1" page="1" gridSize="10" guides="1" tooltips="1" connect="1" arrows="1" fold="1" pageScale="1" pageWidth="3300" pageHeight="4681" math="0" shadow="0">
      <root>
        <mxCell id="0" />
        <mxCell id="1" parent="0" />
        <mxCell id="mWI-LrG0F-PSKntKYBpr-1" value="" style="whiteSpace=wrap;html=1;aspect=fixed;" vertex="1" parent="1">
          <mxGeometry x="1960" y="230" width="590" height="590" as="geometry" />
        </mxCell>
        <mxCell id="mWI-LrG0F-PSKntKYBpr-2" value="&lt;span style=&quot;font-size: 40px;&quot;&gt;Login&lt;/span&gt;" style="text;html=1;align=center;verticalAlign=middle;whiteSpace=wrap;rounded=0;strokeWidth=2;" vertex="1" parent="1">
          <mxGeometry x="2125" y="230" width="260" height="100" as="geometry" />
        </mxCell>
        <mxCell id="mWI-LrG0F-PSKntKYBpr-3" value="&lt;font style=&quot;font-size: 20px;&quot;&gt;Usuario&lt;/font&gt;" style="shape=umlActor;verticalLabelPosition=bottom;verticalAlign=top;html=1;outlineConnect=0;" vertex="1" parent="1">
          <mxGeometry x="1850" y="330" width="50" height="100" as="geometry" />
        </mxCell>
        <mxCell id="mWI-LrG0F-PSKntKYBpr-5" value="&lt;font style=&quot;font-size: 15px;&quot;&gt;Ingresa sus credenciales&lt;/font&gt;" style="ellipse;whiteSpace=wrap;html=1;" vertex="1" parent="1">
          <mxGeometry x="2040" y="340" width="120" height="80" as="geometry" />
        </mxCell>
        <mxCell id="mWI-LrG0F-PSKntKYBpr-6" value="&lt;font style=&quot;font-size: 15px;&quot;&gt;Ingresa su verificación&lt;/font&gt;" style="ellipse;whiteSpace=wrap;html=1;" vertex="1" parent="1">
          <mxGeometry x="2190" y="480" width="120" height="80" as="geometry" />
        </mxCell>
        <mxCell id="mWI-LrG0F-PSKntKYBpr-7" value="&lt;font style=&quot;font-size: 15px;&quot;&gt;Entra a su sesion&lt;/font&gt;" style="ellipse;whiteSpace=wrap;html=1;" vertex="1" parent="1">
          <mxGeometry x="2385" y="620" width="120" height="80" as="geometry" />
        </mxCell>
        <mxCell id="mWI-LrG0F-PSKntKYBpr-9" value="" style="endArrow=classic;html=1;rounded=0;exitX=0.5;exitY=0.5;exitDx=0;exitDy=0;exitPerimeter=0;entryX=0;entryY=0.5;entryDx=0;entryDy=0;" edge="1" parent="1" source="mWI-LrG0F-PSKntKYBpr-3" target="mWI-LrG0F-PSKntKYBpr-5">
          <mxGeometry width="50" height="50" relative="1" as="geometry">
            <mxPoint x="2220" y="540" as="sourcePoint" />
            <mxPoint x="2270" y="490" as="targetPoint" />
          </mxGeometry>
        </mxCell>
        <mxCell id="mWI-LrG0F-PSKntKYBpr-10" value="" style="endArrow=classic;html=1;rounded=0;exitX=1;exitY=1;exitDx=0;exitDy=0;entryX=0;entryY=0;entryDx=0;entryDy=0;" edge="1" parent="1" source="mWI-LrG0F-PSKntKYBpr-5" target="mWI-LrG0F-PSKntKYBpr-6">
          <mxGeometry width="50" height="50" relative="1" as="geometry">
            <mxPoint x="2220" y="540" as="sourcePoint" />
            <mxPoint x="2270" y="490" as="targetPoint" />
          </mxGeometry>
        </mxCell>
        <mxCell id="mWI-LrG0F-PSKntKYBpr-15" value="" style="endArrow=classic;html=1;rounded=0;exitX=1;exitY=1;exitDx=0;exitDy=0;entryX=0;entryY=0;entryDx=0;entryDy=0;" edge="1" parent="1" source="mWI-LrG0F-PSKntKYBpr-6" target="mWI-LrG0F-PSKntKYBpr-7">
          <mxGeometry width="50" height="50" relative="1" as="geometry">
            <mxPoint x="2220" y="550" as="sourcePoint" />
            <mxPoint x="2270" y="500" as="targetPoint" />
          </mxGeometry>
        </mxCell>
        <mxCell id="mWI-LrG0F-PSKntKYBpr-20" value="&lt;font style=&quot;font-size: 15px;&quot;&gt;Recibe codigo verificador&lt;/font&gt;" style="ellipse;whiteSpace=wrap;html=1;" vertex="1" parent="1">
          <mxGeometry x="2310" y="350" width="120" height="80" as="geometry" />
        </mxCell>
        <mxCell id="mWI-LrG0F-PSKntKYBpr-21" value="" style="endArrow=classic;html=1;rounded=0;entryX=1;entryY=0;entryDx=0;entryDy=0;exitX=0;exitY=1;exitDx=0;exitDy=0;dashed=1;dashPattern=8 8;" edge="1" parent="1" source="mWI-LrG0F-PSKntKYBpr-20" target="mWI-LrG0F-PSKntKYBpr-6">
          <mxGeometry width="50" height="50" relative="1" as="geometry">
            <mxPoint x="2250" y="550" as="sourcePoint" />
            <mxPoint x="2300" y="500" as="targetPoint" />
          </mxGeometry>
        </mxCell>
        <mxCell id="VUNzu_okH8nbT3Y2IAhQ-1" value="" style="whiteSpace=wrap;html=1;aspect=fixed;" vertex="1" parent="1">
          <mxGeometry x="1080" y="230" width="590" height="590" as="geometry" />
        </mxCell>
        <mxCell id="VUNzu_okH8nbT3Y2IAhQ-2" value="&lt;span style=&quot;font-size: 40px;&quot;&gt;Reseteo de contraseña&lt;/span&gt;" style="text;html=1;align=center;verticalAlign=middle;whiteSpace=wrap;rounded=0;strokeWidth=2;" vertex="1" parent="1">
          <mxGeometry x="1245" y="230" width="260" height="100" as="geometry" />
        </mxCell>
        <mxCell id="VUNzu_okH8nbT3Y2IAhQ-3" value="&lt;font style=&quot;font-size: 20px;&quot;&gt;Usuario&lt;/font&gt;" style="shape=umlActor;verticalLabelPosition=bottom;verticalAlign=top;html=1;outlineConnect=0;" vertex="1" parent="1">
          <mxGeometry x="970" y="330" width="50" height="100" as="geometry" />
        </mxCell>
        <mxCell id="VUNzu_okH8nbT3Y2IAhQ-5" value="&lt;font style=&quot;font-size: 15px;&quot;&gt;Ingresa su verificación&lt;/font&gt;" style="ellipse;whiteSpace=wrap;html=1;" vertex="1" parent="1">
          <mxGeometry x="1310" y="480" width="120" height="80" as="geometry" />
        </mxCell>
        <mxCell id="VUNzu_okH8nbT3Y2IAhQ-7" value="" style="endArrow=classic;html=1;rounded=0;exitX=0.5;exitY=0.5;exitDx=0;exitDy=0;exitPerimeter=0;entryX=0;entryY=0.5;entryDx=0;entryDy=0;" edge="1" parent="1" source="VUNzu_okH8nbT3Y2IAhQ-3" target="VUNzu_okH8nbT3Y2IAhQ-45">
          <mxGeometry width="50" height="50" relative="1" as="geometry">
            <mxPoint x="1340" y="540" as="sourcePoint" />
            <mxPoint x="1120" y="380" as="targetPoint" />
          </mxGeometry>
        </mxCell>
        <mxCell id="VUNzu_okH8nbT3Y2IAhQ-12" value="" style="endArrow=classic;html=1;rounded=0;exitX=1;exitY=1;exitDx=0;exitDy=0;entryX=0;entryY=0;entryDx=0;entryDy=0;" edge="1" parent="1" source="VUNzu_okH8nbT3Y2IAhQ-5" target="VUNzu_okH8nbT3Y2IAhQ-19">
          <mxGeometry width="50" height="50" relative="1" as="geometry">
            <mxPoint x="1340" y="550" as="sourcePoint" />
            <mxPoint x="1522.5735931288073" y="631.7157287525383" as="targetPoint" />
          </mxGeometry>
        </mxCell>
        <mxCell id="VUNzu_okH8nbT3Y2IAhQ-16" value="&lt;font style=&quot;font-size: 15px;&quot;&gt;Recibe codigo verificador&lt;/font&gt;" style="ellipse;whiteSpace=wrap;html=1;" vertex="1" parent="1">
          <mxGeometry x="1430" y="350" width="120" height="80" as="geometry" />
        </mxCell>
        <mxCell id="VUNzu_okH8nbT3Y2IAhQ-17" value="" style="endArrow=classic;html=1;rounded=0;entryX=1;entryY=0;entryDx=0;entryDy=0;exitX=0;exitY=1;exitDx=0;exitDy=0;dashed=1;dashPattern=8 8;" edge="1" parent="1" source="VUNzu_okH8nbT3Y2IAhQ-16" target="VUNzu_okH8nbT3Y2IAhQ-5">
          <mxGeometry width="50" height="50" relative="1" as="geometry">
            <mxPoint x="1370" y="550" as="sourcePoint" />
            <mxPoint x="1420" y="500" as="targetPoint" />
          </mxGeometry>
        </mxCell>
        <mxCell id="VUNzu_okH8nbT3Y2IAhQ-19" value="&lt;font style=&quot;font-size: 15px;&quot;&gt;Entra a su sesion&lt;/font&gt;" style="ellipse;whiteSpace=wrap;html=1;" vertex="1" parent="1">
          <mxGeometry x="1510" y="620" width="120" height="80" as="geometry" />
        </mxCell>
        <mxCell id="VUNzu_okH8nbT3Y2IAhQ-25" value="" style="whiteSpace=wrap;html=1;aspect=fixed;" vertex="1" parent="1">
          <mxGeometry x="2790" y="230" width="590" height="590" as="geometry" />
        </mxCell>
        <mxCell id="VUNzu_okH8nbT3Y2IAhQ-26" value="&lt;span style=&quot;font-size: 40px;&quot;&gt;Registro de usuario&lt;/span&gt;" style="text;html=1;align=center;verticalAlign=middle;whiteSpace=wrap;rounded=0;strokeWidth=2;" vertex="1" parent="1">
          <mxGeometry x="2955" y="230" width="260" height="100" as="geometry" />
        </mxCell>
        <mxCell id="VUNzu_okH8nbT3Y2IAhQ-27" value="&lt;font style=&quot;font-size: 20px;&quot;&gt;Usuario&lt;/font&gt;" style="shape=umlActor;verticalLabelPosition=bottom;verticalAlign=top;html=1;outlineConnect=0;" vertex="1" parent="1">
          <mxGeometry x="2680" y="300" width="50" height="100" as="geometry" />
        </mxCell>
        <mxCell id="VUNzu_okH8nbT3Y2IAhQ-28" value="&lt;font style=&quot;font-size: 15px;&quot;&gt;Ingresa nuevas credenciales&lt;/font&gt;" style="ellipse;whiteSpace=wrap;html=1;" vertex="1" parent="1">
          <mxGeometry x="2860" y="310" width="120" height="80" as="geometry" />
        </mxCell>
        <mxCell id="VUNzu_okH8nbT3Y2IAhQ-29" value="&lt;font style=&quot;font-size: 15px;&quot;&gt;Ingresa su verificación&lt;/font&gt;" style="ellipse;whiteSpace=wrap;html=1;" vertex="1" parent="1">
          <mxGeometry x="3020" y="480" width="120" height="80" as="geometry" />
        </mxCell>
        <mxCell id="VUNzu_okH8nbT3Y2IAhQ-30" value="&lt;font style=&quot;font-size: 15px;&quot;&gt;Entra a su sesion&lt;/font&gt;" style="ellipse;whiteSpace=wrap;html=1;" vertex="1" parent="1">
          <mxGeometry x="3215" y="620" width="120" height="80" as="geometry" />
        </mxCell>
        <mxCell id="VUNzu_okH8nbT3Y2IAhQ-31" value="" style="endArrow=classic;html=1;rounded=0;exitX=0.5;exitY=0.5;exitDx=0;exitDy=0;exitPerimeter=0;entryX=0;entryY=0.5;entryDx=0;entryDy=0;" edge="1" parent="1" source="VUNzu_okH8nbT3Y2IAhQ-27" target="VUNzu_okH8nbT3Y2IAhQ-28">
          <mxGeometry width="50" height="50" relative="1" as="geometry">
            <mxPoint x="3050" y="540" as="sourcePoint" />
            <mxPoint x="2835" y="350" as="targetPoint" />
          </mxGeometry>
        </mxCell>
        <mxCell id="VUNzu_okH8nbT3Y2IAhQ-32" value="" style="endArrow=classic;html=1;rounded=0;exitX=1;exitY=1;exitDx=0;exitDy=0;entryX=0;entryY=0;entryDx=0;entryDy=0;" edge="1" parent="1" source="VUNzu_okH8nbT3Y2IAhQ-28" target="VUNzu_okH8nbT3Y2IAhQ-29">
          <mxGeometry width="50" height="50" relative="1" as="geometry">
            <mxPoint x="3050" y="540" as="sourcePoint" />
            <mxPoint x="3100" y="490" as="targetPoint" />
          </mxGeometry>
        </mxCell>
        <mxCell id="VUNzu_okH8nbT3Y2IAhQ-36" value="" style="endArrow=classic;html=1;rounded=0;exitX=1;exitY=1;exitDx=0;exitDy=0;entryX=0;entryY=0;entryDx=0;entryDy=0;" edge="1" parent="1" source="VUNzu_okH8nbT3Y2IAhQ-29" target="VUNzu_okH8nbT3Y2IAhQ-30">
          <mxGeometry width="50" height="50" relative="1" as="geometry">
            <mxPoint x="3050" y="550" as="sourcePoint" />
            <mxPoint x="3100" y="500" as="targetPoint" />
          </mxGeometry>
        </mxCell>
        <mxCell id="VUNzu_okH8nbT3Y2IAhQ-38" value="&amp;lt;&amp;lt;e&lt;span style=&quot;background-color: transparent; color: light-dark(rgb(0, 0, 0), rgb(255, 255, 255));&quot;&gt;xtend&amp;gt;&amp;gt;&lt;/span&gt;" style="text;html=1;align=center;verticalAlign=middle;whiteSpace=wrap;rounded=0;" vertex="1" parent="1">
          <mxGeometry x="3280" y="570" width="100" height="30" as="geometry" />
        </mxCell>
        <mxCell id="VUNzu_okH8nbT3Y2IAhQ-40" value="&lt;font style=&quot;font-size: 15px;&quot;&gt;Recibe codigo verificador&lt;/font&gt;" style="ellipse;whiteSpace=wrap;html=1;" vertex="1" parent="1">
          <mxGeometry x="3140" y="350" width="120" height="80" as="geometry" />
        </mxCell>
        <mxCell id="VUNzu_okH8nbT3Y2IAhQ-41" value="" style="endArrow=classic;html=1;rounded=0;entryX=1;entryY=0;entryDx=0;entryDy=0;exitX=0;exitY=1;exitDx=0;exitDy=0;dashed=1;dashPattern=8 8;" edge="1" parent="1" source="VUNzu_okH8nbT3Y2IAhQ-40" target="VUNzu_okH8nbT3Y2IAhQ-29">
          <mxGeometry width="50" height="50" relative="1" as="geometry">
            <mxPoint x="3080" y="550" as="sourcePoint" />
            <mxPoint x="3130" y="500" as="targetPoint" />
          </mxGeometry>
        </mxCell>
        <mxCell id="VUNzu_okH8nbT3Y2IAhQ-45" value="&lt;span style=&quot;font-size: 15px;&quot;&gt;Ingresa nueva contraseña&lt;/span&gt;" style="ellipse;whiteSpace=wrap;html=1;" vertex="1" parent="1">
          <mxGeometry x="1125" y="340" width="120" height="80" as="geometry" />
        </mxCell>
        <mxCell id="VUNzu_okH8nbT3Y2IAhQ-48" value="" style="endArrow=classic;html=1;rounded=0;exitX=1;exitY=1;exitDx=0;exitDy=0;entryX=0;entryY=0;entryDx=0;entryDy=0;" edge="1" parent="1" source="VUNzu_okH8nbT3Y2IAhQ-45" target="VUNzu_okH8nbT3Y2IAhQ-5">
          <mxGeometry width="50" height="50" relative="1" as="geometry">
            <mxPoint x="1490" y="540" as="sourcePoint" />
            <mxPoint x="1540" y="490" as="targetPoint" />
          </mxGeometry>
        </mxCell>
        <mxCell id="RbeKXZimVAFCmCRFSYOv-1" value="&amp;lt;&amp;lt;i&lt;span style=&quot;background-color: transparent; color: light-dark(rgb(0, 0, 0), rgb(255, 255, 255));&quot;&gt;nclude&amp;gt;&amp;gt;&lt;/span&gt;" style="text;html=1;align=center;verticalAlign=middle;whiteSpace=wrap;rounded=0;" vertex="1" parent="1">
          <mxGeometry x="3050" y="420" width="100" height="30" as="geometry" />
        </mxCell>
        <mxCell id="RbeKXZimVAFCmCRFSYOv-2" value="&amp;lt;&amp;lt;include&amp;gt;&amp;gt;" style="text;html=1;align=center;verticalAlign=middle;whiteSpace=wrap;rounded=0;" vertex="1" parent="1">
          <mxGeometry x="2300" y="440" width="100" height="30" as="geometry" />
        </mxCell>
        <mxCell id="RbeKXZimVAFCmCRFSYOv-3" value="" style="endArrow=classic;html=1;rounded=0;entryX=0.5;entryY=0;entryDx=0;entryDy=0;exitX=0.5;exitY=1;exitDx=0;exitDy=0;dashed=1;dashPattern=8 8;" edge="1" parent="1" source="RbeKXZimVAFCmCRFSYOv-4" target="VUNzu_okH8nbT3Y2IAhQ-30">
          <mxGeometry width="50" height="50" relative="1" as="geometry">
            <mxPoint x="3086" y="616" as="sourcePoint" />
            <mxPoint x="3050" y="690" as="targetPoint" />
          </mxGeometry>
        </mxCell>
        <mxCell id="RbeKXZimVAFCmCRFSYOv-4" value="&lt;span style=&quot;font-size: 15px;&quot;&gt;Login&lt;/span&gt;" style="ellipse;whiteSpace=wrap;html=1;" vertex="1" parent="1">
          <mxGeometry x="3240" y="460" width="120" height="80" as="geometry" />
        </mxCell>
        <mxCell id="RbeKXZimVAFCmCRFSYOv-6" value="&lt;font style=&quot;font-size: 15px;&quot;&gt;Recibe codigo verificador&lt;/font&gt;" style="ellipse;whiteSpace=wrap;html=1;" vertex="1" parent="1">
          <mxGeometry x="1125" y="510" width="120" height="80" as="geometry" />
        </mxCell>
        <mxCell id="RbeKXZimVAFCmCRFSYOv-7" value="&amp;lt;&amp;lt;include&amp;gt;&amp;gt;" style="text;html=1;align=center;verticalAlign=middle;whiteSpace=wrap;rounded=0;" vertex="1" parent="1">
          <mxGeometry x="1430" y="440" width="100" height="30" as="geometry" />
        </mxCell>
        <mxCell id="RbeKXZimVAFCmCRFSYOv-8" value="" style="endArrow=classic;html=1;rounded=0;entryX=0.5;entryY=1;entryDx=0;entryDy=0;exitX=0.5;exitY=0;exitDx=0;exitDy=0;dashed=1;dashPattern=8 8;" edge="1" parent="1" source="RbeKXZimVAFCmCRFSYOv-6" target="VUNzu_okH8nbT3Y2IAhQ-45">
          <mxGeometry width="50" height="50" relative="1" as="geometry">
            <mxPoint x="1203" y="430" as="sourcePoint" />
            <mxPoint x="1167" y="504" as="targetPoint" />
          </mxGeometry>
        </mxCell>
        <mxCell id="RbeKXZimVAFCmCRFSYOv-9" value="&amp;lt;&amp;lt;include&amp;gt;&amp;gt;" style="text;html=1;align=center;verticalAlign=middle;whiteSpace=wrap;rounded=0;" vertex="1" parent="1">
          <mxGeometry x="1090" y="450" width="100" height="30" as="geometry" />
        </mxCell>
        <mxCell id="RbeKXZimVAFCmCRFSYOv-10" value="&lt;span style=&quot;font-size: 15px;&quot;&gt;Login&lt;/span&gt;" style="ellipse;whiteSpace=wrap;html=1;" vertex="1" parent="1">
          <mxGeometry x="1530" y="470" width="120" height="80" as="geometry" />
        </mxCell>
        <mxCell id="RbeKXZimVAFCmCRFSYOv-11" value="" style="endArrow=classic;html=1;rounded=0;entryX=0.5;entryY=0;entryDx=0;entryDy=0;exitX=0.5;exitY=1;exitDx=0;exitDy=0;dashed=1;dashPattern=8 8;" edge="1" parent="1" source="RbeKXZimVAFCmCRFSYOv-10" target="VUNzu_okH8nbT3Y2IAhQ-19">
          <mxGeometry width="50" height="50" relative="1" as="geometry">
            <mxPoint x="1458" y="428" as="sourcePoint" />
            <mxPoint x="1422" y="502" as="targetPoint" />
          </mxGeometry>
        </mxCell>
        <mxCell id="RbeKXZimVAFCmCRFSYOv-12" value="&amp;lt;&amp;lt;extend&amp;gt;&amp;gt;" style="text;html=1;align=center;verticalAlign=middle;whiteSpace=wrap;rounded=0;" vertex="1" parent="1">
          <mxGeometry x="1570" y="570" width="100" height="30" as="geometry" />
        </mxCell>
      </root>
    </mxGraphModel>
  </diagram>
</mxfile>
